<svg xmlns="http://www.w3.org/2000/svg" xmlns:xlink="http://www.w3.org/1999/xlink" id="processonSvg1000" viewBox="-9.5 108.0 1080.5 1428.0" width="1080.5" height="1428.0"><defs id="ProcessOnDefs1001"><marker id="ProcessOnMarker1013" markerUnits="userSpaceOnUse" orient="auto" markerWidth="16.23606797749979" markerHeight="10.550836550532098" viewBox="-1.0 -1.3763819204711736 16.23606797749979 10.550836550532098" refX="-1.0" refY="3.8990363547948754"><path id="ProcessOnPath1014" d="M12.0 3.8990363547948754L0.0 7.798072709589751V0.0Z" stroke="#323232" stroke-width="2.0" fill="#323232" transform="matrix(1.0,0.0,0.0,1.0,0.0,0.0)"/></marker><marker id="ProcessOnMarker1022" markerUnits="userSpaceOnUse" orient="auto" markerWidth="16.23606797749979" markerHeight="10.550836550532098" viewBox="-1.0 -1.3763819204711736 16.23606797749979 10.550836550532098" refX="-1.0" refY="3.8990363547948754"><path id="ProcessOnPath1023" d="M12.0 3.8990363547948754L0.0 7.798072709589751V0.0Z" stroke="#323232" stroke-width="2.0" fill="#323232" transform="matrix(1.0,0.0,0.0,1.0,0.0,0.0)"/></marker><marker id="ProcessOnMarker1034" markerUnits="userSpaceOnUse" orient="auto" markerWidth="16.23606797749979" markerHeight="10.550836550532098" viewBox="-1.0 -1.3763819204711736 16.23606797749979 10.550836550532098" refX="-1.0" refY="3.8990363547948754"><path id="ProcessOnPath1035" d="M12.0 3.8990363547948754L0.0 7.798072709589751V0.0Z" stroke="#323232" stroke-width="2.0" fill="#323232" transform="matrix(1.0,0.0,0.0,1.0,0.0,0.0)"/></marker><marker id="ProcessOnMarker1041" markerUnits="userSpaceOnUse" orient="auto" markerWidth="16.23606797749979" markerHeight="10.550836550532098" viewBox="-1.0 -1.3763819204711736 16.23606797749979 10.550836550532098" refX="-1.0" refY="3.8990363547948754"><path id="ProcessOnPath1042" d="M12.0 3.8990363547948754L0.0 7.798072709589751V0.0Z" stroke="#323232" stroke-width="2.0" fill="#323232" transform="matrix(1.0,0.0,0.0,1.0,0.0,0.0)"/></marker><marker id="ProcessOnMarker1052" markerUnits="userSpaceOnUse" orient="auto" markerWidth="16.23606797749979" markerHeight="10.550836550532098" viewBox="-1.0 -1.3763819204711736 16.23606797749979 10.550836550532098" refX="-1.0" refY="3.8990363547948754"><path id="ProcessOnPath1053" d="M12.0 3.8990363547948754L0.0 7.798072709589751V0.0Z" stroke="#323232" stroke-width="2.0" fill="#323232" transform="matrix(1.0,0.0,0.0,1.0,0.0,0.0)"/></marker><marker id="ProcessOnMarker1065" markerUnits="userSpaceOnUse" orient="auto" markerWidth="16.23606797749979" markerHeight="10.550836550532098" viewBox="-1.0 -1.3763819204711736 16.23606797749979 10.550836550532098" refX="-1.0" refY="3.8990363547948754"><path id="ProcessOnPath1066" d="M12.0 3.8990363547948754L0.0 7.798072709589751V0.0Z" stroke="#323232" stroke-width="2.0" fill="#323232" transform="matrix(1.0,0.0,0.0,1.0,0.0,0.0)"/></marker><marker id="ProcessOnMarker1082" markerUnits="userSpaceOnUse" orient="auto" markerWidth="16.23606797749979" markerHeight="10.550836550532098" viewBox="-1.0 -1.3763819204711736 16.23606797749979 10.550836550532098" refX="-1.0" refY="3.8990363547948754"><path id="ProcessOnPath1083" d="M12.0 3.8990363547948754L0.0 7.798072709589751V0.0Z" stroke="#323232" stroke-width="2.0" fill="#323232" transform="matrix(1.0,0.0,0.0,1.0,0.0,0.0)"/></marker><marker id="ProcessOnMarker1093" markerUnits="userSpaceOnUse" orient="auto" markerWidth="16.23606797749979" markerHeight="10.550836550532098" viewBox="-1.0 -1.3763819204711736 16.23606797749979 10.550836550532098" refX="-1.0" refY="3.8990363547948754"><path id="ProcessOnPath1094" d="M12.0 3.8990363547948754L0.0 7.798072709589751V0.0Z" stroke="#323232" stroke-width="2.0" fill="#323232" transform="matrix(1.0,0.0,0.0,1.0,0.0,0.0)"/></marker><marker id="ProcessOnMarker1109" markerUnits="userSpaceOnUse" orient="auto" markerWidth="16.23606797749979" markerHeight="10.550836550532098" viewBox="-1.0 -1.3763819204711736 16.23606797749979 10.550836550532098" refX="-1.0" refY="3.8990363547948754"><path id="ProcessOnPath1110" d="M12.0 3.8990363547948754L0.0 7.798072709589751V0.0Z" stroke="#323232" stroke-width="2.0" fill="#323232" transform="matrix(1.0,0.0,0.0,1.0,0.0,0.0)"/></marker><marker id="ProcessOnMarker1126" markerUnits="userSpaceOnUse" orient="auto" markerWidth="16.23606797749979" markerHeight="10.550836550532098" viewBox="-1.0 -1.3763819204711736 16.23606797749979 10.550836550532098" refX="-1.0" refY="3.8990363547948754"><path id="ProcessOnPath1127" d="M12.0 3.8990363547948754L0.0 7.798072709589751V0.0Z" stroke="#323232" stroke-width="2.0" fill="#323232" transform="matrix(1.0,0.0,0.0,1.0,0.0,0.0)"/></marker><marker id="ProcessOnMarker1130" markerUnits="userSpaceOnUse" orient="auto" markerWidth="16.23606797749979" markerHeight="10.550836550532098" viewBox="-1.0 -1.3763819204711736 16.23606797749979 10.550836550532098" refX="-1.0" refY="3.8990363547948754"><path id="ProcessOnPath1131" d="M12.0 3.8990363547948754L0.0 7.798072709589751V0.0Z" stroke="#323232" stroke-width="2.0" fill="#323232" transform="matrix(1.0,0.0,0.0,1.0,0.0,0.0)"/></marker><marker id="ProcessOnMarker1134" markerUnits="userSpaceOnUse" orient="auto" markerWidth="16.23606797749979" markerHeight="10.550836550532098" viewBox="-1.0 -1.3763819204711736 16.23606797749979 10.550836550532098" refX="-1.0" refY="3.8990363547948754"><path id="ProcessOnPath1135" d="M12.0 3.8990363547948754L0.0 7.798072709589751V0.0Z" stroke="#323232" stroke-width="2.0" fill="#323232" transform="matrix(1.0,0.0,0.0,1.0,0.0,0.0)"/></marker><marker id="ProcessOnMarker1142" markerUnits="userSpaceOnUse" orient="auto" markerWidth="16.23606797749979" markerHeight="10.550836550532098" viewBox="-1.0 -1.3763819204711736 16.23606797749979 10.550836550532098" refX="-1.0" refY="3.8990363547948754"><path id="ProcessOnPath1143" d="M12.0 3.8990363547948754L0.0 7.798072709589751V0.0Z" stroke="#323232" stroke-width="2.0" fill="#323232" transform="matrix(1.0,0.0,0.0,1.0,0.0,0.0)"/></marker><marker id="ProcessOnMarker1158" markerUnits="userSpaceOnUse" orient="auto" markerWidth="16.23606797749979" markerHeight="10.550836550532098" viewBox="-1.0 -1.3763819204711736 16.23606797749979 10.550836550532098" refX="-1.0" refY="3.8990363547948754"><path id="ProcessOnPath1159" d="M12.0 3.8990363547948754L0.0 7.798072709589751V0.0Z" stroke="#323232" stroke-width="2.0" fill="#323232" transform="matrix(1.0,0.0,0.0,1.0,0.0,0.0)"/></marker><marker id="ProcessOnMarker1179" markerUnits="userSpaceOnUse" orient="auto" markerWidth="16.23606797749979" markerHeight="10.550836550532098" viewBox="-1.0 -1.3763819204711736 16.23606797749979 10.550836550532098" refX="-1.0" refY="3.8990363547948754"><path id="ProcessOnPath1180" d="M12.0 3.8990363547948754L0.0 7.798072709589751V0.0Z" stroke="#323232" stroke-width="2.0" fill="#323232" transform="matrix(1.0,0.0,0.0,1.0,0.0,0.0)"/></marker><marker id="ProcessOnMarker1183" markerUnits="userSpaceOnUse" orient="auto" markerWidth="16.23606797749979" markerHeight="10.550836550532098" viewBox="-1.0 -1.3763819204711736 16.23606797749979 10.550836550532098" refX="-1.0" refY="3.8990363547948754"><path id="ProcessOnPath1184" d="M12.0 3.8990363547948754L0.0 7.798072709589751V0.0Z" stroke="#323232" stroke-width="2.0" fill="#323232" transform="matrix(1.0,0.0,0.0,1.0,0.0,0.0)"/></marker><marker id="ProcessOnMarker1187" markerUnits="userSpaceOnUse" orient="auto" markerWidth="16.23606797749979" markerHeight="10.550836550532098" viewBox="-1.0 -1.3763819204711736 16.23606797749979 10.550836550532098" refX="-1.0" refY="3.8990363547948754"><path id="ProcessOnPath1188" d="M12.0 3.8990363547948754L0.0 7.798072709589751V0.0Z" stroke="#323232" stroke-width="2.0" fill="#323232" transform="matrix(1.0,0.0,0.0,1.0,0.0,0.0)"/></marker></defs><g id="ProcessOnG1002"><path id="ProcessOnPath1003" d="M-9.5 108.0H1071.0V1536.0H-9.5V108.0Z" fill="none"/><g id="ProcessOnG1004"><g id="ProcessOnG1005" transform="matrix(1.0,0.0,0.0,1.0,255.0,128.0)" opacity="1.0"><path id="ProcessOnPath1006" d="M23.333333333333332 0.0L136.66666666666666 0.0C167.77777777777777 0.0 167.77777777777777 70.0 136.66666666666666 70.0L23.333333333333332 70.0C-7.777777777777778 70.0 -7.777777777777778 0.0 23.333333333333332 0.0Z" stroke="#323232" stroke-width="2.0" stroke-dasharray="none" opacity="1.0" fill="#ffffff"/><g id="ProcessOnG1007" transform="matrix(1.0,0.0,0.0,1.0,10.0,10.625)"><text id="ProcessOnText1008" fill="#000000" font-weight="normal" font-style="normal" text-decoration="blink" font-family="微软雅黑" text-anchor="middle" font-size="13" x="70.0" y="13.325">start</text><text id="ProcessOnText1009" fill="#000000" font-weight="normal" font-style="normal" text-decoration="blink" font-family="微软雅黑" text-anchor="middle" font-size="13" x="70.0" y="29.575">选取财政审核通过的ord</text><text id="ProcessOnText1010" fill="#000000" font-weight="normal" font-style="normal" text-decoration="blink" font-family="微软雅黑" text-anchor="middle" font-size="13" x="70.0" y="45.825">er进行操作</text></g></g><g id="ProcessOnG1011"><path id="ProcessOnPath1012" d="M335.0 198.0L335.0 221.0L335.0 221.0L335.0 228.7639320225002" stroke="#323232" stroke-width="2.0" stroke-dasharray="none" fill="none" marker-end="url(#ProcessOnMarker1013)"/></g><g id="ProcessOnG1015" transform="matrix(1.0,0.0,0.0,1.0,285.0,244.0)" opacity="1.0"><path id="ProcessOnPath1016" d="M0.0 0.0L100.0 0.0L100.0 46.0L0.0 46.0Z" stroke="#323232" stroke-width="2.0" stroke-dasharray="none" opacity="1.0" fill="#ffffff"/><g id="ProcessOnG1017" transform="matrix(1.0,0.0,0.0,1.0,10.0,6.75)"><text id="ProcessOnText1018" fill="#000000" font-weight="normal" font-style="normal" text-decoration="blink" font-family="微软雅黑" text-anchor="middle" font-size="13" x="40.0" y="13.325">决定最终发放</text><text id="ProcessOnText1019" fill="#000000" font-weight="normal" font-style="normal" text-decoration="blink" font-family="微软雅黑" text-anchor="middle" font-size="13" x="40.0" y="29.575">多少红包</text></g></g><g id="ProcessOnG1020"><path id="ProcessOnPath1021" d="M335.0 290.0L335.0 318.5L335.0 318.5L335.0 331.7639320225002" stroke="#323232" stroke-width="2.0" stroke-dasharray="none" fill="none" marker-end="url(#ProcessOnMarker1022)"/><g id="ProcessOnG1024" transform="matrix(1.0,0.0,0.0,1.0,335.0,302.75696601125014)"><path id="ProcessOnPath1025" d="M0 0H52.0V16.25H0Z" fill="#fff" transform="matrix(1.0,0.0,0.0,1.0,-26.0,0.0)"/><text id="ProcessOnText1026" fill="#000000" font-weight="normal" font-style="normal" text-decoration="blink" font-family="微软雅黑" text-anchor="middle" font-size="13" x="0.0" y="13.325">进入后台</text></g></g><g id="ProcessOnG1027" transform="matrix(1.0,0.0,0.0,1.0,248.5,347.0)" opacity="1.0"><path id="ProcessOnPath1028" d="M0.0 42.5L86.5 0.0L173.0 42.5L86.5 85.0L0.0 42.5Z" stroke="#323232" stroke-width="2.0" stroke-dasharray="none" opacity="1.0" fill="#ffffff"/><g id="ProcessOnG1029" transform="matrix(1.0,0.0,0.0,1.0,10.0,26.25)"><text id="ProcessOnText1030" fill="#000000" font-weight="normal" font-style="normal" text-decoration="blink" font-family="微软雅黑" text-anchor="middle" font-size="13" x="76.5" y="13.325">判断红包金额是否超出最</text><text id="ProcessOnText1031" fill="#000000" font-weight="normal" font-style="normal" text-decoration="blink" font-family="微软雅黑" text-anchor="middle" font-size="13" x="76.5" y="29.575">大限额</text></g></g><g id="ProcessOnG1032"><path id="ProcessOnPath1033" d="M248.5 389.5L143.0 389.5L143.0 537.7639320225002" stroke="#323232" stroke-width="2.0" stroke-dasharray="none" fill="none" marker-end="url(#ProcessOnMarker1034)"/><g id="ProcessOnG1036" transform="matrix(1.0,0.0,0.0,1.0,143.0,402.7569660112501)"><path id="ProcessOnPath1037" d="M0 0H26.0V16.25H0Z" fill="#fff" transform="matrix(1.0,0.0,0.0,1.0,-13.0,0.0)"/><text id="ProcessOnText1038" fill="#000000" font-weight="normal" font-style="normal" text-decoration="blink" font-family="微软雅黑" text-anchor="middle" font-size="13" x="0.0" y="13.325">超出</text></g></g><g id="ProcessOnG1039"><path id="ProcessOnPath1040" d="M335.0 432.0L335.0 459.5L335.0 459.5L335.0 471.7639320225002" stroke="#323232" stroke-width="2.0" stroke-dasharray="none" fill="none" marker-end="url(#ProcessOnMarker1041)"/><g id="ProcessOnG1043" transform="matrix(1.0,0.0,0.0,1.0,335.0,443.75696601125014)"><path id="ProcessOnPath1044" d="M0 0H26.0V16.25H0Z" fill="#fff" transform="matrix(1.0,0.0,0.0,1.0,-13.0,0.0)"/><text id="ProcessOnText1045" fill="#000000" font-weight="normal" font-style="normal" text-decoration="blink" font-family="微软雅黑" text-anchor="middle" font-size="13" x="0.0" y="13.325">正常</text></g></g><g id="ProcessOnG1046" transform="matrix(1.0,0.0,0.0,1.0,248.5,487.0)" opacity="1.0"><path id="ProcessOnPath1047" d="M0.0 41.0L86.5 0.0L173.0 41.0L86.5 82.0L0.0 41.0Z" stroke="#323232" stroke-width="2.0" stroke-dasharray="none" opacity="1.0" fill="#ffffff"/><g id="ProcessOnG1048" transform="matrix(1.0,0.0,0.0,1.0,10.0,32.875)"><text id="ProcessOnText1049" fill="#000000" font-weight="normal" font-style="normal" text-decoration="blink" font-family="微软雅黑" text-anchor="middle" font-size="13" x="76.5" y="13.325">是否通过微信发放</text></g></g><g id="ProcessOnG1050"><path id="ProcessOnPath1051" d="M335.0 569.0L335.0 601.0L335.0 601.0L335.0 617.7639320225002" stroke="#323232" stroke-width="2.0" stroke-dasharray="none" fill="none" marker-end="url(#ProcessOnMarker1052)"/><g id="ProcessOnG1054" transform="matrix(1.0,0.0,0.0,1.0,335.0,585.2569660112501)"><path id="ProcessOnPath1055" d="M0 0H20.0V16.25H0Z" fill="#fff" transform="matrix(1.0,0.0,0.0,1.0,-10.0,0.0)"/><text id="ProcessOnText1056" fill="#000000" font-weight="normal" font-style="normal" text-decoration="blink" font-family="微软雅黑" text-anchor="middle" font-size="13" x="0.0" y="13.325">yes</text></g></g><g id="ProcessOnG1057" transform="matrix(1.0,0.0,0.0,1.0,268.0,633.0)" opacity="1.0"><path id="ProcessOnPath1058" d="M0.0 0.0L134.0 0.0L134.0 69.0L0.0 69.0Z" stroke="#323232" stroke-width="2.0" stroke-dasharray="none" opacity="1.0" fill="#ffffff"/><g id="ProcessOnG1059" transform="matrix(1.0,0.0,0.0,1.0,10.0,10.125)"><text id="ProcessOnText1060" fill="#000000" font-weight="normal" font-style="normal" text-decoration="blink" font-family="微软雅黑" text-anchor="middle" font-size="13" x="57.0" y="13.325">定义订单号</text><text id="ProcessOnText1061" fill="#000000" font-weight="normal" font-style="normal" text-decoration="blink" font-family="微软雅黑" text-anchor="middle" font-size="13" x="57.0" y="29.575">调用setPrize接口</text><text id="ProcessOnText1062" fill="#000000" font-weight="normal" font-style="normal" text-decoration="blink" font-family="微软雅黑" text-anchor="middle" font-size="13" x="57.0" y="45.825">返回数据</text></g></g><g id="ProcessOnG1063"><path id="ProcessOnPath1064" d="M421.5 528.0L467.75 528.0L467.75 528.0L498.7639320225002 528.0" stroke="#323232" stroke-width="2.0" stroke-dasharray="none" fill="none" marker-end="url(#ProcessOnMarker1065)"/><g id="ProcessOnG1067" transform="matrix(1.0,0.0,0.0,1.0,460.13196601125014,519.875)"><path id="ProcessOnPath1068" d="M0 0H16.0V16.25H0Z" fill="#fff" transform="matrix(1.0,0.0,0.0,1.0,-8.0,0.0)"/><text id="ProcessOnText1069" fill="#000000" font-weight="normal" font-style="normal" text-decoration="blink" font-family="微软雅黑" text-anchor="middle" font-size="13" x="0.0" y="13.325">no</text></g></g><g id="ProcessOnG1070" transform="matrix(1.0,0.0,0.0,1.0,514.0,458.75)" opacity="1.0"><path id="ProcessOnPath1071" d="M0.0 0.0L313.0 0.0L313.0 138.5L0.0 138.5Z" stroke="#323232" stroke-width="2.0" stroke-dasharray="none" opacity="1.0" fill="#ffffff"/><g id="ProcessOnG1072" transform="matrix(1.0,0.0,0.0,1.0,10.0,12.375)"><text id="ProcessOnText1073" fill="#000000" font-weight="normal" font-style="normal" text-decoration="blink" font-family="微软雅黑" text-anchor="middle" font-size="13" x="146.5" y="13.325">order表 update</text><text id="ProcessOnText1074" fill="#000000" font-weight="normal" font-style="normal" text-decoration="blink" font-family="微软雅黑" text-anchor="middle" font-size="13" x="146.5" y="29.575">money,</text><text id="ProcessOnText1075" fill="#000000" font-weight="normal" font-style="normal" text-decoration="blink" font-family="微软雅黑" text-anchor="middle" font-size="13" x="146.5" y="45.825">default_grant_status =&gt;发放中</text><text id="ProcessOnText1076" fill="#000000" font-weight="normal" font-style="normal" text-decoration="blink" font-family="微软雅黑" text-anchor="middle" font-size="13" x="146.5" y="62.075"></text><text id="ProcessOnText1077" fill="#000000" font-weight="normal" font-style="normal" text-decoration="blink" font-family="微软雅黑" text-anchor="middle" font-size="13" x="146.5" y="78.325">operate_log表 insert</text><text id="ProcessOnText1078" fill="#000000" font-weight="normal" font-style="normal" text-decoration="blink" font-family="微软雅黑" text-anchor="middle" font-size="13" x="146.5" y="94.575">status =&gt;发放中</text><text id="ProcessOnText1079" fill="#000000" font-weight="normal" font-style="normal" text-decoration="blink" font-family="微软雅黑" text-anchor="middle" font-size="13" x="146.5" y="110.825">desc =&gt; 当前时间</text></g></g><g id="ProcessOnG1080"><path id="ProcessOnPath1081" d="M670.5 597.25L670.5 654.625L670.5 654.625L670.5 696.7639320225002" stroke="#323232" stroke-width="2.0" stroke-dasharray="none" fill="none" marker-end="url(#ProcessOnMarker1082)"/><g id="ProcessOnG1084" transform="matrix(1.0,0.0,0.0,1.0,670.5,638.8819660112501)"><path id="ProcessOnPath1085" d="M0 0H52.0V16.25H0Z" fill="#fff" transform="matrix(1.0,0.0,0.0,1.0,-26.0,0.0)"/><text id="ProcessOnText1086" fill="#000000" font-weight="normal" font-style="normal" text-decoration="blink" font-family="微软雅黑" text-anchor="middle" font-size="13" x="0.0" y="13.325">线下发放</text></g></g><g id="ProcessOnG1087" transform="matrix(1.0,0.0,0.0,1.0,532.0,712.0)" opacity="1.0"><path id="ProcessOnPath1088" d="M0.0 63.5L138.5 0.0L277.0 63.5L138.5 127.0L0.0 63.5Z" stroke="#323232" stroke-width="2.0" stroke-dasharray="none" opacity="1.0" fill="#ffffff"/><g id="ProcessOnG1089" transform="matrix(1.0,0.0,0.0,1.0,10.0,55.375)"><text id="ProcessOnText1090" fill="#000000" font-weight="normal" font-style="normal" text-decoration="blink" font-family="微软雅黑" text-anchor="middle" font-size="13" x="128.5" y="13.325">是否成功</text></g></g><g id="ProcessOnG1091"><path id="ProcessOnPath1092" d="M670.5 839.0L670.5 902.75L670.5 902.75L670.5 951.2639320225002" stroke="#323232" stroke-width="2.0" stroke-dasharray="none" fill="none" marker-end="url(#ProcessOnMarker1093)"/><g id="ProcessOnG1095" transform="matrix(1.0,0.0,0.0,1.0,670.5,887.0069660112501)"><path id="ProcessOnPath1096" d="M0 0H26.0V16.25H0Z" fill="#fff" transform="matrix(1.0,0.0,0.0,1.0,-13.0,0.0)"/><text id="ProcessOnText1097" fill="#000000" font-weight="normal" font-style="normal" text-decoration="blink" font-family="微软雅黑" text-anchor="middle" font-size="13" x="0.0" y="13.325">成功</text></g></g><g id="ProcessOnG1098" transform="matrix(1.0,0.0,0.0,1.0,546.75,966.5)" opacity="1.0"><path id="ProcessOnPath1099" d="M0.0 0.0L247.5 0.0L247.5 130.0L0.0 130.0Z" stroke="#323232" stroke-width="2.0" stroke-dasharray="none" opacity="1.0" fill="#ffffff"/><g id="ProcessOnG1100" transform="matrix(1.0,0.0,0.0,1.0,10.0,16.25)"><text id="ProcessOnText1101" fill="#000000" font-weight="normal" font-style="normal" text-decoration="blink" font-family="微软雅黑" text-anchor="middle" font-size="13" x="113.75" y="13.325">order 表 update</text><text id="ProcessOnText1102" fill="#000000" font-weight="normal" font-style="normal" text-decoration="blink" font-family="微软雅黑" text-anchor="middle" font-size="13" x="113.75" y="29.575">status =&gt;发放成功</text><text id="ProcessOnText1103" fill="#000000" font-weight="normal" font-style="normal" text-decoration="blink" font-family="微软雅黑" text-anchor="middle" font-size="13" x="113.75" y="45.825"></text><text id="ProcessOnText1104" fill="#000000" font-weight="normal" font-style="normal" text-decoration="blink" font-family="微软雅黑" text-anchor="middle" font-size="13" x="113.75" y="62.075">operate_log 表 update</text><text id="ProcessOnText1105" fill="#000000" font-weight="normal" font-style="normal" text-decoration="blink" font-family="微软雅黑" text-anchor="middle" font-size="13" x="113.75" y="78.325">status =&gt; 发放成功</text><text id="ProcessOnText1106" fill="#000000" font-weight="normal" font-style="normal" text-decoration="blink" font-family="微软雅黑" text-anchor="middle" font-size="13" x="113.75" y="94.575">desc =&gt; 去发放时间-发放完成时间</text></g></g><g id="ProcessOnG1107"><path id="ProcessOnPath1108" d="M809.0 775.5L939.0 775.5L939.0 946.2639320225002" stroke="#323232" stroke-width="2.0" stroke-dasharray="none" fill="none" marker-end="url(#ProcessOnMarker1109)"/><g id="ProcessOnG1111" transform="matrix(1.0,0.0,0.0,1.0,939.0,787.7569660112501)"><path id="ProcessOnPath1112" d="M0 0H26.0V16.25H0Z" fill="#fff" transform="matrix(1.0,0.0,0.0,1.0,-13.0,0.0)"/><text id="ProcessOnText1113" fill="#000000" font-weight="normal" font-style="normal" text-decoration="blink" font-family="微软雅黑" text-anchor="middle" font-size="13" x="0.0" y="13.325">失败</text></g></g><g id="ProcessOnG1114" transform="matrix(1.0,0.0,0.0,1.0,827.0,961.5)" opacity="1.0"><path id="ProcessOnPath1115" d="M0.0 0.0L224.0 0.0L224.0 135.0L0.0 135.0Z" stroke="#323232" stroke-width="2.0" stroke-dasharray="none" opacity="1.0" fill="#ffffff"/><g id="ProcessOnG1116" transform="matrix(1.0,0.0,0.0,1.0,10.0,10.625)"><text id="ProcessOnText1117" fill="#000000" font-weight="normal" font-style="normal" text-decoration="blink" font-family="微软雅黑" text-anchor="middle" font-size="13" x="102.0" y="13.325">order 表 update</text><text id="ProcessOnText1118" fill="#000000" font-weight="normal" font-style="normal" text-decoration="blink" font-family="微软雅黑" text-anchor="middle" font-size="13" x="102.0" y="29.575">status =&gt;发放失败</text><text id="ProcessOnText1119" fill="#000000" font-weight="normal" font-style="normal" text-decoration="blink" font-family="微软雅黑" text-anchor="middle" font-size="13" x="102.0" y="45.825"></text><text id="ProcessOnText1120" fill="#000000" font-weight="normal" font-style="normal" text-decoration="blink" font-family="微软雅黑" text-anchor="middle" font-size="13" x="102.0" y="62.075">operate_log 表 update</text><text id="ProcessOnText1121" fill="#000000" font-weight="normal" font-style="normal" text-decoration="blink" font-family="微软雅黑" text-anchor="middle" font-size="13" x="102.0" y="78.325">status =&gt; 发放失败</text><text id="ProcessOnText1122" fill="#000000" font-weight="normal" font-style="normal" text-decoration="blink" font-family="微软雅黑" text-anchor="middle" font-size="13" x="102.0" y="94.575">desc =&gt; 去发放时间-发放完成时</text><text id="ProcessOnText1123" fill="#000000" font-weight="normal" font-style="normal" text-decoration="blink" font-family="微软雅黑" text-anchor="middle" font-size="13" x="102.0" y="110.825">间</text></g></g><g id="ProcessOnG1124"><path id="ProcessOnPath1125" d="M670.5 1096.5L670.5 1196.25L524.0 1196.25L524.0 1280.7639320225003" stroke="#323232" stroke-width="2.0" stroke-dasharray="none" fill="none" marker-end="url(#ProcessOnMarker1126)"/></g><g id="ProcessOnG1128"><path id="ProcessOnPath1129" d="M939.0 1096.5L939.0 1196.25L524.0 1196.25L524.0 1280.7639320225003" stroke="#323232" stroke-width="2.0" stroke-dasharray="none" fill="none" marker-end="url(#ProcessOnMarker1130)"/></g><g id="ProcessOnG1132"><path id="ProcessOnPath1133" d="M335.0 702.0L335.0 747.0L335.0 747.0L335.0 776.7639320225002" stroke="#323232" stroke-width="2.0" stroke-dasharray="none" fill="none" marker-end="url(#ProcessOnMarker1134)"/></g><g id="ProcessOnG1136" transform="matrix(1.0,0.0,0.0,1.0,206.625,792.0)" opacity="1.0"><path id="ProcessOnPath1137" d="M0.0 46.5L128.375 0.0L256.75 46.5L128.375 93.0L0.0 46.5Z" stroke="#323232" stroke-width="2.0" stroke-dasharray="none" opacity="1.0" fill="#ffffff"/><g id="ProcessOnG1138" transform="matrix(1.0,0.0,0.0,1.0,10.0,38.375)"><text id="ProcessOnText1139" fill="#000000" font-weight="normal" font-style="normal" text-decoration="blink" font-family="微软雅黑" text-anchor="middle" font-size="13" x="118.375" y="13.325">是否成功</text></g></g><g id="ProcessOnG1140"><path id="ProcessOnPath1141" d="M335.0 885.0L335.0 928.25L392.0 928.25L392.0 956.2639320225002" stroke="#323232" stroke-width="2.0" stroke-dasharray="none" fill="none" marker-end="url(#ProcessOnMarker1142)"/><g id="ProcessOnG1144" transform="matrix(1.0,0.0,0.0,1.0,355.8819660112501,920.125)"><path id="ProcessOnPath1145" d="M0 0H26.0V16.25H0Z" fill="#fff" transform="matrix(1.0,0.0,0.0,1.0,-13.0,0.0)"/><text id="ProcessOnText1146" fill="#000000" font-weight="normal" font-style="normal" text-decoration="blink" font-family="微软雅黑" text-anchor="middle" font-size="13" x="0.0" y="13.325">成功</text></g></g><g id="ProcessOnG1147" transform="matrix(1.0,0.0,0.0,1.0,273.0,971.5)" opacity="1.0"><path id="ProcessOnPath1148" d="M0.0 0.0L238.0 0.0L238.0 125.0L0.0 125.0Z" stroke="#323232" stroke-width="2.0" stroke-dasharray="none" opacity="1.0" fill="#ffffff"/><g id="ProcessOnG1149" transform="matrix(1.0,0.0,0.0,1.0,10.0,13.75)"><text id="ProcessOnText1150" fill="#000000" font-weight="normal" font-style="normal" text-decoration="blink" font-family="微软雅黑" text-anchor="middle" font-size="13" x="109.0" y="13.325">order 表 update</text><text id="ProcessOnText1151" fill="#000000" font-weight="normal" font-style="normal" text-decoration="blink" font-family="微软雅黑" text-anchor="middle" font-size="13" x="109.0" y="29.575">status =&gt;发放成功</text><text id="ProcessOnText1152" fill="#000000" font-weight="normal" font-style="normal" text-decoration="blink" font-family="微软雅黑" text-anchor="middle" font-size="13" x="109.0" y="45.825"></text><text id="ProcessOnText1153" fill="#000000" font-weight="normal" font-style="normal" text-decoration="blink" font-family="微软雅黑" text-anchor="middle" font-size="13" x="109.0" y="62.075">operate_log 表 update</text><text id="ProcessOnText1154" fill="#000000" font-weight="normal" font-style="normal" text-decoration="blink" font-family="微软雅黑" text-anchor="middle" font-size="13" x="109.0" y="78.325">status =&gt; 接口返回状态</text><text id="ProcessOnText1155" fill="#000000" font-weight="normal" font-style="normal" text-decoration="blink" font-family="微软雅黑" text-anchor="middle" font-size="13" x="109.0" y="94.575">desc =&gt; 订单号</text></g></g><g id="ProcessOnG1156"><path id="ProcessOnPath1157" d="M206.625 838.5L129.5 838.5L129.5 956.2639320225002" stroke="#323232" stroke-width="2.0" stroke-dasharray="none" fill="none" marker-end="url(#ProcessOnMarker1158)"/><g id="ProcessOnG1160" transform="matrix(1.0,0.0,0.0,1.0,129.5,850.6944660112501)"><path id="ProcessOnPath1161" d="M0 0H26.0V16.25H0Z" fill="#fff" transform="matrix(1.0,0.0,0.0,1.0,-13.0,0.0)"/><text id="ProcessOnText1162" fill="#000000" font-weight="normal" font-style="normal" text-decoration="blink" font-family="微软雅黑" text-anchor="middle" font-size="13" x="0.0" y="13.325">失败</text></g></g><g id="ProcessOnG1163" transform="matrix(1.0,0.0,0.0,1.0,10.5,971.5)" opacity="1.0"><path id="ProcessOnPath1164" d="M0.0 0.0L238.0 0.0L238.0 125.0L0.0 125.0Z" stroke="#323232" stroke-width="2.0" stroke-dasharray="none" opacity="1.0" fill="#ffffff"/><g id="ProcessOnG1165" transform="matrix(1.0,0.0,0.0,1.0,10.0,13.75)"><text id="ProcessOnText1166" fill="#000000" font-weight="normal" font-style="normal" text-decoration="blink" font-family="微软雅黑" text-anchor="middle" font-size="13" x="109.0" y="13.325">order 表 update</text><text id="ProcessOnText1167" fill="#000000" font-weight="normal" font-style="normal" text-decoration="blink" font-family="微软雅黑" text-anchor="middle" font-size="13" x="109.0" y="29.575">status =&gt;发放失败</text><text id="ProcessOnText1168" fill="#000000" font-weight="normal" font-style="normal" text-decoration="blink" font-family="微软雅黑" text-anchor="middle" font-size="13" x="109.0" y="45.825"></text><text id="ProcessOnText1169" fill="#000000" font-weight="normal" font-style="normal" text-decoration="blink" font-family="微软雅黑" text-anchor="middle" font-size="13" x="109.0" y="62.075">operate_log 表 update</text><text id="ProcessOnText1170" fill="#000000" font-weight="normal" font-style="normal" text-decoration="blink" font-family="微软雅黑" text-anchor="middle" font-size="13" x="109.0" y="78.325">status =&gt; 接口返回状态</text><text id="ProcessOnText1171" fill="#000000" font-weight="normal" font-style="normal" text-decoration="blink" font-family="微软雅黑" text-anchor="middle" font-size="13" x="109.0" y="94.575">desc =&gt; 订单号</text></g></g><g id="ProcessOnG1172" transform="matrix(1.0,0.0,0.0,1.0,362.0,1296.0)" opacity="1.0"><path id="ProcessOnPath1173" d="M0.0 0.0L324.0 0.0L324.0 116.0L0.0 116.0Z" stroke="#323232" stroke-width="2.0" stroke-dasharray="none" opacity="1.0" fill="#ffffff"/><g id="ProcessOnG1174" transform="matrix(1.0,0.0,0.0,1.0,10.0,41.75)"><text id="ProcessOnText1175" fill="#000000" font-weight="normal" font-style="normal" text-decoration="blink" font-family="微软雅黑" text-anchor="middle" font-size="13" x="152.0" y="13.325">insert grant_log </text><text id="ProcessOnText1176" fill="#000000" font-weight="normal" font-style="normal" text-decoration="blink" font-family="微软雅黑" text-anchor="middle" font-size="13" x="152.0" y="29.575">添加发放红包记录</text></g></g><g id="ProcessOnG1177"><path id="ProcessOnPath1178" d="M392.0 1096.5L392.0 1196.25L524.0 1196.25L524.0 1280.7639320225003" stroke="#323232" stroke-width="2.0" stroke-dasharray="none" fill="none" marker-end="url(#ProcessOnMarker1179)"/></g><g id="ProcessOnG1181"><path id="ProcessOnPath1182" d="M129.5 1096.5L129.5 1196.25L524.0 1196.25L524.0 1280.7639320225003" stroke="#323232" stroke-width="2.0" stroke-dasharray="none" fill="none" marker-end="url(#ProcessOnMarker1183)"/></g><g id="ProcessOnG1185"><path id="ProcessOnPath1186" d="M524.0 1412.0L524.0 1439.0L524.0 1439.0L524.0 1450.7639320225003" stroke="#323232" stroke-width="2.0" stroke-dasharray="none" fill="none" marker-end="url(#ProcessOnMarker1187)"/></g><g id="ProcessOnG1189" transform="matrix(1.0,0.0,0.0,1.0,474.0,1466.0)" opacity="1.0"><path id="ProcessOnPath1190" d="M16.666666666666668 0.0L83.33333333333333 0.0C105.55555555555556 0.0 105.55555555555556 50.0 83.33333333333333 50.0L16.666666666666668 50.0C-5.555555555555556 50.0 -5.555555555555556 0.0 16.666666666666668 0.0Z" stroke="#323232" stroke-width="2.0" stroke-dasharray="none" opacity="1.0" fill="#ffffff"/><g id="ProcessOnG1191" transform="matrix(1.0,0.0,0.0,1.0,10.0,16.875)"><text id="ProcessOnText1192" fill="#000000" font-weight="normal" font-style="normal" text-decoration="blink" font-family="微软雅黑" text-anchor="middle" font-size="13" x="40.0" y="13.325">end</text></g></g><g id="ProcessOnG1193" transform="matrix(1.0,0.0,0.0,1.0,93.0,553.0)" opacity="1.0"><path id="ProcessOnPath1194" d="M16.666666666666668 0.0L83.33333333333333 0.0C105.55555555555556 0.0 105.55555555555556 50.0 83.33333333333333 50.0L16.666666666666668 50.0C-5.555555555555556 50.0 -5.555555555555556 0.0 16.666666666666668 0.0Z" stroke="#323232" stroke-width="2.0" stroke-dasharray="none" opacity="1.0" fill="#ffffff"/><g id="ProcessOnG1195" transform="matrix(1.0,0.0,0.0,1.0,10.0,16.875)"><text id="ProcessOnText1196" fill="#000000" font-weight="normal" font-style="normal" text-decoration="blink" font-family="微软雅黑" text-anchor="middle" font-size="13" x="40.0" y="13.325">end</text></g></g></g></g></svg>
